# xmcd
#
# Track frame offsets: 
#        150
#        16308
#        28821
#        41062
#        56228
#        73845
#        80393
#        92923
#        110296
#        119730
#        129134
#        143027
#        155188
#        167224
#        183053
#
# Disc length: 2679 seconds
#
# Revision: 0
# Processed by: cddbd v1.5.2PL0 Copyright (c) Steve Scherf et al.
# Submitted via: ExactAudioCopy v0.99pb5
#
DISCID=d20a750f
DTITLE=Various Artist - Country Legends [CD4]
DYEAR=2009
DGENRE=Country
TTITLE0=Blanket On The Ground - Billie Jo Spears
TTITLE1=Ring Of Fire - Johnny Cash
TTITLE2=A Poor Man's Roses (Or A Rich Man's Gold) - Patsy Cline
TTITLE3=For The Good Times - Kenny Rogers
TTITLE4=The Wind Beneath My Wings - Marie O'Brien
TTITLE5=Have I Told You Lately That I Love You - Jim Reeves
TTITLE6=You're My Best Friend - Cindy Morgan
TTITLE7=I Believe In You - Don Williams
TTITLE8=In My Life - Susan Taylor
TTITLE9=Remember Me (I'm The One Who Loves You) - Faron Young
TTITLE10=Crying Time - Jo Anne Houston
TTITLE11=I'll Hold You In My Heart - Eddy Arnold
TTITLE12=You Never Can Tell - Billie Jo Spears
TTITLE13=She Even Woke Me Up To Say Goodbye - Jerry Lee Lewis
TTITLE14=Sweet Dreams - Cindy Morgan
EXTD=
EXTT0=
EXTT1=
EXTT2=
EXTT3=
EXTT4=
EXTT5=
EXTT6=
EXTT7=
EXTT8=
EXTT9=
EXTT10=
EXTT11=
EXTT12=
EXTT13=
EXTT14=
PLAYORDER=
